<svg xmlns="http://www.w3.org/2000/svg" viewBox="0 0 48 48">
  <!-- Fuselage: tapers from mid to tail -->
  <path d="M22,10 L26,10 L27,36 Q26,44 24,44 Q22,44 21,36 Z" fill="#f97316"/>
  <!-- Radial engine cowl (round nose, Zero signature) -->
  <circle cx="24" cy="8" r="4.5" fill="#ea580c"/>
  <!-- Long elliptical wings -->
  <path d="M22,19 Q13,20 4,27 L5,30 Q14,24 22,23 L26,23 Q34,24 43,30 L44,27 Q35,20 26,19 Z" fill="#f97316"/>
  <!-- Horizontal tail surfaces -->
  <path d="M21.5,38.5 Q17,40 14,42 L14,40 Q17,38.5 21.5,37.5 L26.5,37.5 Q31,38.5 34,40 L34,42 Q31,40 26.5,38.5 Z" fill="#f97316"/>
  <!-- Tail fin (single, centerline) -->
  <path d="M23,36 L25,36 L25,43 L23,43 Z" fill="#ea580c"/>
</svg>
