<svg xmlns="http://www.w3.org/2000/svg" viewBox="0 0 48 48">
  <!-- Fuselage -->
  <path d="M22,10 L26,10 L27,37 Q25.5,44 24,44 Q22.5,44 21,37 Z" fill="#f97316"/>
  <!-- Radial cowl (slightly smaller than Zero) -->
  <circle cx="24" cy="8" r="4" fill="#ea580c"/>
  <!-- Wings with distinctive "butterfly" combat flap shape -->
  <path d="M22,20 Q14,21 6,28 L7,31 Q14,25.5 22,23.5 L26,23.5 Q34,25.5 41,31 L42,28 Q34,21 26,20 Z" fill="#f97316"/>
  <!-- Slightly shorter horizontal tail than Zero -->
  <path d="M22,39 Q18,41 16,42.5 L16,40.5 Q18.5,39 22,38 L26,38 Q29.5,39 31.5,40.5 L31.5,42.5 Q29.5,41 26,39 Z" fill="#f97316"/>
  <!-- Tail fin -->
  <path d="M23,36 L25,36 L25,43 L23,43 Z" fill="#ea580c"/>
</svg>
